<svg xmlns="http://www.w3.org/2000/svg" xmlns:xlink="http://www.w3.org/1999/xlink" width="115" zoomAndPan="magnify"
     viewBox="0 0 86.25 30.000001" height="40" preserveAspectRatio="xMidYMid meet" version="1.0">
    <defs>
        <g/>
        <clipPath id="id1">
            <path d="M 79.777344 18.890625 L 83.40625 18.890625 L 83.40625 22.519531 L 79.777344 22.519531 Z M 79.777344 18.890625 "
                  clip-rule="nonzero"/>
        </clipPath>
    </defs>
    <g clip-path="url(#id1)">
        <path fill="black
"
              d="M 81.59375 18.890625 C 80.589844 18.890625 79.777344 19.703125 79.777344 20.703125 C 79.777344 21.707031 80.589844 22.519531 81.59375 22.519531 C 82.59375 22.519531 83.40625 21.707031 83.40625 20.703125 C 83.40625 19.703125 82.59375 18.890625 81.59375 18.890625 "
              fill-opacity="1" fill-rule="nonzero"/>
    </g>
    <g fill="white" fill-opacity="1">
        <g transform="translate(4.845739, 19.932753)">
            <g>
                <path d="M 2.875 -1.546875 L 7.890625 -1.546875 L 7.890625 0 L 0.78125 0 L 0.78125 -1.390625 L 5.78125 -9.265625 L 0.78125 -9.265625 L 0.78125 -10.8125 L 7.890625 -10.8125 L 7.890625 -9.421875 Z M 2.875 -1.546875 "/>
            </g>
        </g>
    </g>
    <g fill="white" fill-opacity="1">
        <g transform="translate(13.524011, 19.932753)">
            <g>
                <path d="M 5.59375 -8.703125 C 6.25 -8.703125 6.832031 -8.5625 7.34375 -8.28125 C 7.851562 -8 8.253906 -7.582031 8.546875 -7.03125 C 8.847656 -6.488281 9 -5.828125 9 -5.046875 L 9 0 L 7.25 0 L 7.25 -4.78125 C 7.25 -5.550781 7.054688 -6.140625 6.671875 -6.546875 C 6.285156 -6.960938 5.757812 -7.171875 5.09375 -7.171875 C 4.4375 -7.171875 3.910156 -6.960938 3.515625 -6.546875 C 3.128906 -6.140625 2.9375 -5.550781 2.9375 -4.78125 L 2.9375 0 L 1.171875 0 L 1.171875 -11.5 L 2.9375 -11.5 L 2.9375 -7.578125 C 3.238281 -7.929688 3.617188 -8.207031 4.078125 -8.40625 C 4.535156 -8.601562 5.039062 -8.703125 5.59375 -8.703125 Z M 5.59375 -8.703125 "/>
            </g>
        </g>
    </g>
    <g fill="white" fill-opacity="1">
        <g transform="translate(23.617555, 19.932753)">
            <g>
                <path d="M 9.015625 -4.5 C 9.015625 -4.175781 8.992188 -3.882812 8.953125 -3.625 L 2.40625 -3.625 C 2.457031 -2.9375 2.710938 -2.382812 3.171875 -1.96875 C 3.628906 -1.5625 4.1875 -1.359375 4.84375 -1.359375 C 5.800781 -1.359375 6.476562 -1.753906 6.875 -2.546875 L 8.78125 -2.546875 C 8.519531 -1.765625 8.050781 -1.117188 7.375 -0.609375 C 6.695312 -0.109375 5.851562 0.140625 4.84375 0.140625 C 4.03125 0.140625 3.296875 -0.0390625 2.640625 -0.40625 C 1.992188 -0.78125 1.488281 -1.300781 1.125 -1.96875 C 0.757812 -2.632812 0.578125 -3.410156 0.578125 -4.296875 C 0.578125 -5.171875 0.753906 -5.941406 1.109375 -6.609375 C 1.460938 -7.285156 1.960938 -7.800781 2.609375 -8.15625 C 3.265625 -8.519531 4.007812 -8.703125 4.84375 -8.703125 C 5.65625 -8.703125 6.375 -8.523438 7 -8.171875 C 7.632812 -7.828125 8.128906 -7.332031 8.484375 -6.6875 C 8.835938 -6.050781 9.015625 -5.320312 9.015625 -4.5 Z M 7.171875 -5.046875 C 7.160156 -5.703125 6.925781 -6.226562 6.46875 -6.625 C 6.007812 -7.019531 5.441406 -7.21875 4.765625 -7.21875 C 4.160156 -7.21875 3.640625 -7.019531 3.203125 -6.625 C 2.765625 -6.238281 2.503906 -5.710938 2.421875 -5.046875 Z M 7.171875 -5.046875 "/>
            </g>
        </g>
    </g>
    <g fill="white" fill-opacity="1">
        <g transform="translate(33.213419, 19.932753)">
            <g>
                <path d="M 8.875 -8.5625 L 3.625 4.03125 L 1.78125 4.03125 L 3.53125 -0.140625 L 0.15625 -8.5625 L 2.125 -8.5625 L 4.546875 -2.03125 L 7.046875 -8.5625 Z M 8.875 -8.5625 "/>
            </g>
        </g>
    </g>
    <g fill="white" fill-opacity="1">
        <g transform="translate(42.264951, 19.932753)">
            <g>
                <path d="M 5.484375 -8.703125 C 6.160156 -8.703125 6.765625 -8.5625 7.296875 -8.28125 C 7.828125 -8 8.242188 -7.582031 8.546875 -7.03125 C 8.847656 -6.488281 9 -5.828125 9 -5.046875 L 9 0 L 7.25 0 L 7.25 -4.78125 C 7.25 -5.550781 7.054688 -6.140625 6.671875 -6.546875 C 6.285156 -6.960938 5.757812 -7.171875 5.09375 -7.171875 C 4.4375 -7.171875 3.910156 -6.960938 3.515625 -6.546875 C 3.128906 -6.140625 2.9375 -5.550781 2.9375 -4.78125 L 2.9375 0 L 1.171875 0 L 1.171875 -8.5625 L 2.9375 -8.5625 L 2.9375 -7.59375 C 3.226562 -7.9375 3.597656 -8.207031 4.046875 -8.40625 C 4.492188 -8.601562 4.972656 -8.703125 5.484375 -8.703125 Z M 5.484375 -8.703125 "/>
            </g>
        </g>
    </g>
    <g fill="white" fill-opacity="1">
        <g transform="translate(52.358494, 19.932753)">
            <g>
                <path d="M 4.28125 0.140625 C 3.601562 0.140625 2.992188 0.0195312 2.453125 -0.21875 C 1.921875 -0.46875 1.5 -0.800781 1.1875 -1.21875 C 0.882812 -1.632812 0.722656 -2.101562 0.703125 -2.625 L 2.53125 -2.625 C 2.5625 -2.257812 2.734375 -1.957031 3.046875 -1.71875 C 3.367188 -1.476562 3.769531 -1.359375 4.25 -1.359375 C 4.738281 -1.359375 5.117188 -1.453125 5.390625 -1.640625 C 5.671875 -1.828125 5.8125 -2.070312 5.8125 -2.375 C 5.8125 -2.695312 5.65625 -2.9375 5.34375 -3.09375 C 5.039062 -3.25 4.5625 -3.421875 3.90625 -3.609375 C 3.257812 -3.785156 2.734375 -3.957031 2.328125 -4.125 C 1.921875 -4.289062 1.570312 -4.539062 1.28125 -4.875 C 0.988281 -5.21875 0.84375 -5.671875 0.84375 -6.234375 C 0.84375 -6.691406 0.972656 -7.109375 1.234375 -7.484375 C 1.503906 -7.859375 1.890625 -8.15625 2.390625 -8.375 C 2.898438 -8.59375 3.484375 -8.703125 4.140625 -8.703125 C 5.109375 -8.703125 5.890625 -8.457031 6.484375 -7.96875 C 7.085938 -7.476562 7.410156 -6.804688 7.453125 -5.953125 L 5.671875 -5.953125 C 5.640625 -6.335938 5.484375 -6.644531 5.203125 -6.875 C 4.921875 -7.101562 4.546875 -7.21875 4.078125 -7.21875 C 3.609375 -7.21875 3.25 -7.128906 3 -6.953125 C 2.75 -6.773438 2.625 -6.539062 2.625 -6.25 C 2.625 -6.019531 2.707031 -5.828125 2.875 -5.671875 C 3.039062 -5.515625 3.242188 -5.390625 3.484375 -5.296875 C 3.722656 -5.210938 4.078125 -5.101562 4.546875 -4.96875 C 5.160156 -4.800781 5.664062 -4.632812 6.0625 -4.46875 C 6.46875 -4.300781 6.816406 -4.050781 7.109375 -3.71875 C 7.398438 -3.382812 7.550781 -2.941406 7.5625 -2.390625 C 7.5625 -1.898438 7.425781 -1.460938 7.15625 -1.078125 C 6.882812 -0.703125 6.5 -0.40625 6 -0.1875 C 5.507812 0.03125 4.9375 0.140625 4.28125 0.140625 Z M 4.28125 0.140625 "/>
            </g>
        </g>
    </g>
    <g fill="white" fill-opacity="1">
        <g transform="translate(60.663507, 19.932753)">
            <g>
                <path d="M 4.875 0.140625 C 4.070312 0.140625 3.34375 -0.0390625 2.6875 -0.40625 C 2.03125 -0.78125 1.515625 -1.300781 1.140625 -1.96875 C 0.773438 -2.632812 0.59375 -3.410156 0.59375 -4.296875 C 0.59375 -5.160156 0.78125 -5.929688 1.15625 -6.609375 C 1.539062 -7.285156 2.066406 -7.800781 2.734375 -8.15625 C 3.398438 -8.519531 4.140625 -8.703125 4.953125 -8.703125 C 5.773438 -8.703125 6.515625 -8.519531 7.171875 -8.15625 C 7.835938 -7.800781 8.363281 -7.285156 8.75 -6.609375 C 9.132812 -5.929688 9.328125 -5.160156 9.328125 -4.296875 C 9.328125 -3.421875 9.128906 -2.644531 8.734375 -1.96875 C 8.335938 -1.300781 7.800781 -0.78125 7.125 -0.40625 C 6.445312 -0.0390625 5.695312 0.140625 4.875 0.140625 Z M 4.875 -1.40625 C 5.332031 -1.40625 5.757812 -1.507812 6.15625 -1.71875 C 6.5625 -1.9375 6.890625 -2.265625 7.140625 -2.703125 C 7.390625 -3.140625 7.515625 -3.671875 7.515625 -4.296875 C 7.515625 -4.910156 7.394531 -5.429688 7.15625 -5.859375 C 6.914062 -6.296875 6.597656 -6.625 6.203125 -6.84375 C 5.804688 -7.0625 5.378906 -7.171875 4.921875 -7.171875 C 4.472656 -7.171875 4.050781 -7.0625 3.65625 -6.84375 C 3.269531 -6.625 2.960938 -6.296875 2.734375 -5.859375 C 2.503906 -5.429688 2.390625 -4.910156 2.390625 -4.296875 C 2.390625 -3.367188 2.625 -2.65625 3.09375 -2.15625 C 3.570312 -1.65625 4.164062 -1.40625 4.875 -1.40625 Z M 4.875 -1.40625 "/>
            </g>
        </g>
    </g>
    <g fill="white" fill-opacity="1">
        <g transform="translate(70.585976, 19.932753)">
            <g>
                <path d="M 5.484375 -8.703125 C 6.160156 -8.703125 6.765625 -8.5625 7.296875 -8.28125 C 7.828125 -8 8.242188 -7.582031 8.546875 -7.03125 C 8.847656 -6.488281 9 -5.828125 9 -5.046875 L 9 0 L 7.25 0 L 7.25 -4.78125 C 7.25 -5.550781 7.054688 -6.140625 6.671875 -6.546875 C 6.285156 -6.960938 5.757812 -7.171875 5.09375 -7.171875 C 4.4375 -7.171875 3.910156 -6.960938 3.515625 -6.546875 C 3.128906 -6.140625 2.9375 -5.550781 2.9375 -4.78125 L 2.9375 0 L 1.171875 0 L 1.171875 -8.5625 L 2.9375 -8.5625 L 2.9375 -7.59375 C 3.226562 -7.9375 3.597656 -8.207031 4.046875 -8.40625 C 4.492188 -8.601562 4.972656 -8.703125 5.484375 -8.703125 Z M 5.484375 -8.703125 "/>
            </g>
        </g>
    </g>
</svg>
