<?xml version="1.0" encoding="utf-8"?>
<!-- Generator: Adobe Illustrator 24.3.0, SVG Export Plug-In . SVG Version: 6.00 Build 0)  -->
<svg version="1.1" id="Слой_1" xmlns="http://www.w3.org/2000/svg" xmlns:xlink="http://www.w3.org/1999/xlink" x="0px" y="0px"
	 viewBox="0 0 512 512" style="enable-background:new 0 0 512 512;" xml:space="preserve">
<style type="text/css">
	.st0{fill:#FFFFFF;}
</style>
<path d="M76.8,0h358.4C477.6,0,512,34.4,512,76.8v358.4c0,42.4-34.4,76.8-76.8,76.8H76.8C34.4,512,0,477.6,0,435.2V76.8
	C0,34.4,34.4,0,76.8,0z"/>
<path class="st0" d="M357.2,296.9c-17,0-33-7.2-47.4-18.9l3.5-16.6l0.1-0.6c3.2-17.6,13.1-47.2,43.8-47.2c23,0,41.7,18.7,41.7,41.7
	S380.2,296.9,357.2,296.9L357.2,296.9z M357.2,171.4c-39.2,0-69.5,25.4-81.9,67.3c-18.8-28.3-33.1-62.2-41.4-90.8h-42.2v109.7
	c0,21.7-17.6,39.3-39.3,39.3s-39.3-17.6-39.3-39.3V147.8H71v109.7c0,44.9,36.5,81.8,81.4,81.8s81.4-36.9,81.4-81.8v-18.4
	c8.2,17.1,18.2,34.4,30.4,49.6l-25.8,121.4h43.1l18.7-88c16.4,10.5,35.2,17.1,56.8,17.1c46.2,0,83.8-37.8,83.8-84.1
	C440.9,209,403.4,171.4,357.2,171.4"/>
</svg>
